<svg xmlns="http://www.w3.org/2000/svg" width="44.80106mm" height="15.00001mm" viewBox="0 0 126.99513 42.51971">
  <defs>
    <style>
      .cls-1 {
        fill: none;
      }

      .cls-2 {
        fill: #4b4b4a;
      }

      .cls-3 {
        fill: #9cc5ce;
      }

      .cls-4 {
        fill: #fff;
      }

      .cls-5 {
        fill: #1669ab;
      }
    </style>
  </defs>
  <title>logo-header-hover</title>
  <g id="Ebene_2" data-name="Ebene 2">
    <g id="Ebene_1-2" data-name="Ebene 1">
      <g>
        <rect class="cls-1" width="126.96952" height="42.51971"/>
        <polygon class="cls-2" points="52.378 42.318 47.33 42.318 47.33 32.376 52.719 32.376 52.254 33.523 48.801 33.523 48.801 36.713 52.054 36.713 51.604 37.843 48.801 37.843 48.801 41.126 52.998 41.126 52.378 42.318"/>
        <polygon class="cls-2" points="54.546 42.318 54.546 33.244 53.927 32.376 55.754 32.376 59.238 37.285 62.986 32.376 63.822 32.376 63.822 42.318 62.351 42.318 62.351 34.994 58.99 39.469 55.785 34.978 55.785 42.318 54.546 42.318"/>
        <path class="cls-2" d="M72.15285,35.76037a3.63919,3.63919,0,0,0-.75873-1.28531,3.44439,3.44439,0,0,0-1.22367-.83679,4.33123,4.33123,0,0,0-1.67221-.3013H67.36769V41.157c.15476.04109.37457.08765.65806.13969a4.74046,4.74046,0,0,0,.84432.07738A3.29359,3.29359,0,0,0,70.38,41.04061a3.34348,3.34348,0,0,0,1.10726-.8902,4.09016,4.09016,0,0,0,.68888-1.27024,4.58575,4.58575,0,0,0,.24035-1.47088,4.96,4.96,0,0,0-.26363-1.64892M73.632,39.4766a4.74256,4.74256,0,0,1-1.0299,1.61879,4.53493,4.53493,0,0,1-1.6181,1.05249,5.76927,5.76927,0,0,1-2.11388.37183,10.35646,10.35646,0,0,1-1.65713-.12394,12.5781,12.5781,0,0,1-1.31613-.27871V32.53169q.604-.12429,1.31613-.21707a13.17045,13.17045,0,0,1,1.67288-.09313,5.97371,5.97371,0,0,1,2.144.36429,4.40994,4.40994,0,0,1,1.61057,1.03743A4.50782,4.50782,0,0,1,73.647,35.24953a6.21286,6.21286,0,0,1,.34855,2.14469A5.71033,5.71033,0,0,1,73.632,39.4766"/>
        <polygon class="cls-2" points="80.422 42.318 75.374 42.318 75.374 32.376 80.763 32.376 80.298 33.523 76.845 33.523 76.845 36.713 80.097 36.713 79.648 37.843 76.845 37.843 76.845 41.126 81.042 41.126 80.422 42.318"/>
        <polygon class="cls-2" points="89.636 42.318 83.953 35.18 83.953 42.318 82.713 42.318 82.713 33.616 81.723 32.376 83.58 32.376 89.063 39.237 89.063 32.376 90.317 32.376 90.317 42.318 89.636 42.318"/>
        <polygon class="cls-2" points="103.2 42.318 98.369 42.318 98.369 32.376 99.84 32.376 99.84 41.126 103.82 41.126 103.2 42.318"/>
        <polygon class="cls-2" points="109.766 42.318 104.718 42.318 104.718 32.376 110.106 32.376 109.642 33.523 106.189 33.523 106.189 36.713 109.441 36.713 108.991 37.843 106.189 37.843 106.189 41.126 110.386 41.126 109.766 42.318"/>
        <polygon class="cls-2" points="117.276 42.318 112.228 42.318 112.228 32.376 117.616 32.376 117.152 33.523 113.699 33.523 113.699 36.713 116.951 36.713 116.502 37.843 113.699 37.843 113.699 41.126 117.896 41.126 117.276 42.318"/>
        <path class="cls-2" d="M123.46967,33.7705a3.20589,3.20589,0,0,0-1.85777-.43346h-.86761v3.871h2.01322a2.93651,2.93651,0,0,0,.42593-.28624,2.60921,2.60921,0,0,0,.42524-.43346,2.35326,2.35326,0,0,0,.33349-.58068,1.92779,1.92779,0,0,0,.13146-.72791,1.61526,1.61526,0,0,0-.604-1.40925m1.64139,8.548L122.21518,38.292l-1.47089-.01575v4.04219h-1.47088v-9.7867q.58855-.12429,1.20794-.21707a10.74938,10.74938,0,0,1,1.54826-.09313,5.25086,5.25086,0,0,1,1.40172.178,3.38036,3.38036,0,0,1,1.11479.52727,2.48556,2.48556,0,0,1,.743.87445,2.67316,2.67316,0,0,1,.27117,1.23874,2.53444,2.53444,0,0,1-.20885,1.05317,3.28808,3.28808,0,0,1-.51153.81282,3.2099,3.2099,0,0,1-.64984.58069,3.30007,3.30007,0,0,1-.62725.34032l3.40672,4.4914Z"/>
        <rect class="cls-2" x="93.1544" y="36.11467" width="2.4097" height="2.4097"/>
        <g>
          <g>
            <path class="cls-3" d="M36.90717,27.52173a9.75311,9.75311,0,0,0,4.501-1.11963l.02875-.04657A9.71159,9.71159,0,0,1,38.009,26.965c-5.71222-.04187-10.92151-4.78766-15.62207-9.76233v1.22613C26.75146,23.1933,31.569,27.48743,36.90717,27.52173Z"/>
            <path class="cls-3" d="M35.80261,28.5694a10.16345,10.16345,0,0,0,4.92011-1.31269,10.10956,10.10956,0,0,1-3.8183.756c-5.37952-.03449-10.1767-4.17627-14.51752-8.86023v1.27435C26.39246,24.83478,30.81189,28.5412,35.80261,28.5694Z"/>
            <path class="cls-3" d="M42.32593,27.28705c-.29065.30493-.58179.60425-.87531.8811q-.51672.55362-1.04156,1.04767-.51352.55161-1.03534,1.04291-.51462.55362-1.03815,1.04632c-3.13965,3.38-6.57922,5.08716-10.26874,5.08716-7.25244,0-11.60144-6.50531-15.8844-13.94482h.56629c4.16461,7.20941,8.41357,13.45453,15.31811,13.45453a11.50723,11.50723,0,0,0,5.53974-1.44281,11.54038,11.54038,0,0,1-4.42768.886h-.0075c-6.90985-.00537-11.30957-5.92865-15.5766-12.89776h.57788c4.14337,6.73346,8.43005,12.402,14.99939,12.4068h.00683a11.32585,11.32585,0,0,0,5.45758-1.42981,11.32277,11.32277,0,0,1-4.34484.87311h-.01575c-6.56287-.00977-10.98383-5.36908-15.22595-11.8501h.58624c4.1134,6.24322,8.40961,11.3501,14.64038,11.35913h.01508a11.04094,11.04094,0,0,0,5.28711-1.38117,10.88939,10.88939,0,0,1-4.19764.82447c-6.15948-.01367-10.68524-4.97315-14.79553-10.80243h.603C21.171,28.04578,25.54926,32.746,31.38245,32.75879h.02191A10.86185,10.86185,0,0,0,36.6059,31.3927a10.864,10.864,0,0,1-4.09015.81006h-.03009c-5.786-.0177-10.23712-4.41766-14.29242-9.75537h.618c3.91913,5.10223,8.20972,9.24762,13.67578,9.2644h.02875a10.68956,10.68956,0,0,0,5.12-1.35376,10.902,10.902,0,0,1-4.04559.79706c-5.397-.0213-9.72723-3.88043-13.69666-8.7077h.63605c3.823,4.58685,7.97992,8.197,13.06268,8.21673h.03559a10.50173,10.50173,0,0,0,5.0365-1.34008,10.69463,10.69463,0,0,1-3.96894.78338c-4.93762-.02362-9.1809-3.42908-12.99109-7.66h.66614c3.6568,3.99139,7.7,7.14709,12.327,7.169a10.24512,10.24512,0,0,0,4.99536-1.32568,10.239,10.239,0,0,1-3.89288.76965c-5.0232-.02844-9.42926-3.59234-13.413-7.9049v1.29168H2.44714V42.3869H42.32593Z"/>
            <path class="cls-3" d="M38.01306,26.474a9.20482,9.20482,0,0,0,3.86139-.84021c.02808-.04791.05615-.09448.08423-.1424a9.4534,9.4534,0,0,1-2.84448.42591c-6.0199-.04956-11.67151-5.42517-16.7273-10.59412v1.16528C27.11115,21.52435,32.351,26.43231,38.01306,26.474Z"/>
            <path class="cls-3" d="M39.11761,25.42633a8.90651,8.90651,0,0,0,3.20832-.58655V2.50812H22.3869V14.62085C27.46442,19.82849,33.15735,25.37756,39.11761,25.42633Z"/>
            <path class="cls-4" d="M35.79993,29.06036a10.239,10.239,0,0,0,3.89288-.76965,10.24512,10.24512,0,0,1-4.99536,1.32568c-4.627-.02191-8.67023-3.17761-12.327-7.169h-.66614c3.81019,4.231,8.05347,7.63641,12.99109,7.66a10.69463,10.69463,0,0,0,3.96894-.78338,10.50173,10.50173,0,0,1-5.0365,1.34008h-.03559c-5.08276-.01977-9.23968-3.62988-13.06268-8.21673h-.63605c3.96943,4.82727,8.29969,8.6864,13.69666,8.7077a10.902,10.902,0,0,0,4.04559-.79706,10.68956,10.68956,0,0,1-5.12,1.35376H32.487c-5.46606-.01678-9.75665-4.16217-13.67578-9.2644h-.618c4.0553,5.33771,8.50641,9.73767,14.29242,9.75537h.03009a10.864,10.864,0,0,0,4.09015-.81006,10.86185,10.86185,0,0,1-5.20154,1.36609h-.02191c-5.83319-.01282-10.21143-4.713-14.19391-10.3114h-.603c4.11029,5.82928,8.63605,10.78876,14.79553,10.80243a10.88939,10.88939,0,0,0,4.19764-.82447,11.04094,11.04094,0,0,1-5.28711,1.38117h-.01508c-6.23077-.009-10.527-5.11591-14.64038-11.35913h-.58624c4.24212,6.481,8.66308,11.84033,15.226,11.8501h.01575a11.32277,11.32277,0,0,0,4.34484-.87311,11.32585,11.32585,0,0,1-5.45758,1.42981h-.00683c-6.56934-.00476-10.856-5.67334-14.99939-12.4068h-.57788c4.267,6.96911,8.66675,12.89239,15.5766,12.89776h.0075a11.54038,11.54038,0,0,0,4.42768-.886,11.50723,11.50723,0,0,1-5.53974,1.44281c-6.90454,0-11.1535-6.24512-15.31811-13.45453h-.56629c4.283,7.43951,8.632,13.94482,15.8844,13.94482,3.68952,0,7.12909-1.70715,10.26874-5.08716q.52386-.493,1.03815-1.04632.52176-.492,1.03534-1.04291.52487-.494,1.04156-1.04767c.29352-.27685.58466-.57617.87531-.8811l.00024-.00025V24.83972l-.00024.00006a8.90651,8.90651,0,0,1-3.20832.58655c-5.96026-.04877-11.65319-5.59784-16.73071-10.80548l-.00049-.00049v.70233l.00049.00049c5.05579,5.16895,10.7074,10.54456,16.7273,10.59412a9.4534,9.4534,0,0,0,2.84448-.42591c-.02808.04792-.05615.09449-.08423.1424a9.20482,9.20482,0,0,1-3.86139.84021c-5.66211-.04169-10.90191-4.94965-15.62616-9.98554l-.00049-.00048v.71411l.00049.00055C27.08746,22.17731,32.29675,26.9231,38.009,26.965a9.71159,9.71159,0,0,0,3.42792-.60944l-.02875.04657a9.75311,9.75311,0,0,1-4.501,1.11963c-5.33814-.0343-10.15571-4.32843-14.52027-9.093l-.00049-.00055v.7237l.00049.00055c4.34082,4.684,9.138,8.82574,14.51752,8.86023a10.10956,10.10956,0,0,0,3.8183-.756,10.16345,10.16345,0,0,1-4.92011,1.31269c-4.99072-.0282-9.41015-3.73462-13.41571-8.14258l-.00049-.00055v.72864l.00049.00055C26.37067,25.468,30.77673,29.03192,35.79993,29.06036Z"/>
          </g>
          <g>
            <path class="cls-5" d="M7.28906,6.21051c-.12121-.07806-.241-.15271-.36224-.22461l-.1048.01849c.111.08423.2226.17121.33283.2602C7.19934,6.24609,7.24457,6.22833,7.28906,6.21051Z"/>
            <path class="cls-5" d="M5.25049,6.42828q.26193.24756.51977.50739c.07465-.04175.14856-.08283.22321-.12256q-.26606-.2363-.53412-.45746C5.38953,6.379,5.32037,6.403,5.25049,6.42828Z"/>
            <path class="cls-5" d="M6.64673,6.48645q-.23007-.17871-.46149-.34442c-.05615.0144-.11163.02875-.16711.04382q.22183.19007.44238.389C6.52283,6.54468,6.58441,6.5152,6.64673,6.48645Z"/>
            <path class="cls-5" d="M1.66779,6.57A14.26075,14.26075,0,0,0,0,7.52039V9.1087A19.3423,19.3423,0,0,1,2.33545,7.31848Q2.00677,6.93844,1.66779,6.57Z"/>
            <path class="cls-5" d="M4.991,5.98248q-.224-.17157-.44989-.33209c-.04383.00684-.08625.01434-.1294.02191q.21158.18074.42114.36908C4.88483,6.02148,4.93823,6.00165,4.991,5.98248Z"/>
            <path class="cls-5" d="M3.97754,5.26892Q3.8296,5.17242,3.6817,5.08q.12634.09759.25269.19787Z"/>
            <path class="cls-5" d="M3.37628,8.57709q-.34615-.43662-.70184-.86078A19.50392,19.50392,0,0,0,0,9.8067v2.08008A27.54,27.54,0,0,1,3.37628,8.57709Z"/>
            <path class="cls-5" d="M7.89642,5.99139c-.06024-.02948-.12048-.05822-.18072-.08563.04791.03223.09582.06507.1438.098Z"/>
            <path class="cls-5" d="M3.80084,7.06372q.31742.3534.62726.71832c.08289-.0589.16638-.11572.24927-.17187q-.31329-.342-.63342-.669C3.96381,6.9809,3.881,7.02264,3.80084,7.06372Z"/>
            <path class="cls-5" d="M4.51367,6.72272q.29178.30194.57868.61627.12113-.076.241-.14856-.29279-.29178-.58892-.567C4.66779,6.65558,4.58972,6.68848,4.51367,6.72272Z"/>
            <path class="cls-5" d="M5.63672,5.77087c-.11438-.07324-.22937-.14447-.34516-.21228-.015.00068-.03009.00208-.04583.00342q.152.11508.30194.2356Z"/>
            <path class="cls-5" d="M4.32745,6.24683q-.26092-.23018-.52453-.4458c-.05823.01434-.11914.02941-.178.04516q.2547.23933.50537.48755C4.196,6.30432,4.26172,6.2749,4.32745,6.24683Z"/>
            <path class="cls-5" d="M1.194,5.36548q.304.30514.59985.62109.10272-.04514.20539-.08832-.30708-.2958-.62177-.57861C1.31653,5.334,1.25488,5.34973,1.194,5.36548Z"/>
            <path class="cls-5" d="M1.6,4.767c-.14655-.11371-.29309-.22327-.43964-.33142L1.11383,4.437c.13281.11438.26636.2301.3999.34857Z"/>
            <path class="cls-5" d="M4.02954,8.06964q-.33069-.39028-.671-.76556c-.08838.05-.17535.10064-.263.15271q.33691.40265.66425.81689Q3.89535,8.169,4.02954,8.06964Z"/>
            <path class="cls-5" d="M10.49512,19.7771A91.863,91.863,0,0,0,3.69128,8.98041,28.43486,28.43486,0,0,0,0,12.68079v7.259H10.58765Z"/>
            <path class="cls-5" d="M2.13824,6.3584q.3133.34515.61768.69848c.08148-.04864.163-.09588.24445-.14245q-.31128-.33279-.63-.65186C2.2923,6.29407,2.21564,6.32556,2.13824,6.3584Z"/>
            <path class="cls-5" d="M2.87366,6.07562q.28766.29269.56836.59577c.0733-.03907.14587-.076.21911-.113q-.28857-.28244-.5827-.55188C3.01062,6.02838,2.94147,6.05164,2.87366,6.07562Z"/>
            <path class="cls-5" d="M.29,4.49451c.08765.08148.17529.163.26294.24579.08014.076.15954.15136.239.228.04724-.01367.09516-.02667.1424-.0404Q.67144,4.7.40784,4.48218Z"/>
            <path class="cls-5" d="M3.33313,5.4292c-.026-.01917-.052-.03906-.07733-.0589-.13355-.1-.26642-.19861-.3999-.29376-.02808.00207-.05616.00476-.08423.00751q.22082.18694.43823.3814C3.251,5.45319,3.29205,5.44153,3.33313,5.4292Z"/>
            <path class="cls-5" d="M2.66827,5.64008c-.14111-.12256-.2835-.24378-.4273-.36152-.04383-.03631-.08765-.07263-.13147-.10821-.04724.00751-.09522.01575-.14246.02466q.26807.24856.532.50671C2.55524,5.68048,2.61212,5.66,2.66827,5.64008Z"/>
            <path class="cls-5" d="M5.02112,7.99091c-.089.05957-.1767.12054-.26569.18286a85.2836,85.2836,0,0,1,7.02228,10.55975q.36163.6059.72137,1.20624h.79767q-.54831-.86572-1.09857-1.74237A78.03158,78.03158,0,0,0,5.02112,7.99091Z"/>
            <path class="cls-5" d="M10.30273,6.14752C12.887,7.6554,15.609,10.78613,18.66785,14.30585q.62832.7229,1.27191,1.45764V14.62927c-.14032-.15246-.28211-.30609-.42145-.45764C16.17462,10.53412,12.99725,7.07745,10.30273,6.14752Z"/>
            <path class="cls-5" d="M9.24268,6.153l-.063.01232c2.68908,1.75776,5.448,5.11451,8.33978,8.63282.78931.96038,1.59705,1.93945,2.42029,2.91058V16.50446c-.5539-.62879-1.10211-1.25745-1.641-1.87745C15.07074,10.91278,12.00439,7.38489,9.24268,6.153Z"/>
            <path class="cls-5" d="M11.53943,6.15778c2.5083,1.34008,5.26037,4.33319,8.33905,7.68243l.06128.06653v-1.0542C16.73883,9.57166,13.903,6.79968,11.53943,6.15778Z"/>
            <path class="cls-5" d="M8.50934,6.32281c-.05.01368-.09863.02808-.14929.04249,2.67535,2.02276,5.3117,5.41308,8.07342,8.96423,1.13141,1.4552,2.29913,2.95141,3.50629,4.40106v-1.266c-.95557-1.116-1.88831-2.24829-2.79828-3.35547C14.12372,11.43732,11.2525,7.94434,8.50934,6.32281Z"/>
            <path class="cls-5" d="M2.0047,3.62073a12.82578,12.82578,0,0,1,1.664.57037,11.78123,11.78123,0,0,1,1.64893.493,10.72168,10.72168,0,0,1,1.63385.40332,9.52,9.52,0,0,1,1.54345.28009l.03357.00891a9.0155,9.0155,0,0,1,.93952.06983,4.75708,4.75708,0,0,1,.56286.10754c.13489-.011.26978-.01849.404-.02331,2.688-.09442,5.86328,2.90191,9.50488,6.62243V0H0V2.835c.10815.04944.21606.093.32428.14551A13.87859,13.87859,0,0,1,2.0047,3.62073Z"/>
            <path class="cls-5" d="M4.35828,8.46063c-.09455.07056-.1897.14246-.28351.215a92.11926,92.11926,0,0,1,6.84564,10.86041c.07672.13519.15308.2688.22968.40369h.77929c-.19031-.31818-.38043-.63556-.57141-.95557A84.84466,84.84466,0,0,0,4.35828,8.46063Z"/>
            <path class="cls-5" d="M5.69763,7.56018c-.08764.05274-.17389.10547-.26153.16095a79.02159,79.02159,0,0,1,7.17633,10.216q.63428,1.00974,1.26446,2.00263h.85724c-.55035-.81653-1.09643-1.63922-1.63959-2.46A70.71348,70.71348,0,0,0,5.69763,7.56018Z"/>
            <path class="cls-5" d="M7.79028,6.55219c-.0664.024-.13281.04864-.19854.074,2.65277,2.26935,5.17547,5.69592,7.81457,9.28064.99652,1.3537,2.00006,2.71509,3.02179,4.033h1.04932c-1.18036-1.42218-2.32257-2.88513-3.43018-4.30957C13.20886,11.97968,10.50336,8.50037,7.79028,6.55219Z"/>
            <path class="cls-5" d="M7.083,6.8371c-.076.03351-.152.06842-.228.10406a64.11957,64.11957,0,0,1,7.57629,9.59155c.79572,1.14057,1.597,2.28449,2.40894,3.407h.97034c-.945-1.22821-1.87494-2.48865-2.79865-3.74329C12.3255,12.54736,9.76178,9.06464,7.083,6.8371Z"/>
            <path class="cls-5" d="M6.38788,7.17328c-.08423.04382-.16913.08905-.25336.13562a71.93257,71.93257,0,0,1,7.3681,9.901c.60291.91107,1.20844,1.82581,1.8205,2.72986h.91321c-.74274-1.033-1.47693-2.08148-2.20642-3.127C11.47369,13.14789,9.02905,9.64392,6.38788,7.17328Z"/>
            <path class="cls-5" d="M.6571,5.52161c-.21923.06988-.438.17486-.6571.25995V6.9425a14.80317,14.80317,0,0,1,1.32611-.73883Q.99634,5.85651.6571,5.52161Z"/>
            <path class="cls-5" d="M.2168,5.0957C.14447,5.0274.07233,4.96222,0,4.895v.34839c.087-.03229.17365-.07666.26062-.10663C.24622,5.12311.23187,5.10938.2168,5.0957Z"/>
            <path class="cls-4" d="M3.69128,8.98041A91.863,91.863,0,0,1,10.49512,19.7771l.09253.16266h.56244c-.0766-.13489-.153-.2685-.22968-.40369A92.11926,92.11926,0,0,0,4.07477,8.67566c.09381-.07257.189-.14447.28351-.215A84.84466,84.84466,0,0,1,11.358,18.98419c.191.32.3811.63739.57141.95557h.5697q-.36025-.60123-.72137-1.20624A85.2836,85.2836,0,0,0,4.75543,8.17377c.089-.06232.17664-.12329.26569-.18286a78.03158,78.03158,0,0,1,7.17706,10.20648q.55087.877,1.09857,1.74237h.58014q-.63115-.99372-1.26446-2.00263A79.02159,79.02159,0,0,0,5.4361,7.72113c.08764-.05548.17389-.10821.26153-.16095a70.71348,70.71348,0,0,1,7.39691,9.91956c.54316.8208,1.08924,1.64349,1.63959,2.46h.589c-.61206-.904-1.21759-1.81879-1.8205-2.72986a71.93257,71.93257,0,0,0-7.3681-9.901c.08423-.04657.16913-.0918.25336-.13562,2.64117,2.47064,5.08581,5.97461,7.642,9.63946.72949,1.04554,1.46368,2.094,2.20642,3.127h.60382c-.81189-1.12256-1.61322-2.26648-2.40894-3.407A64.11957,64.11957,0,0,0,6.85492,6.94116c.076-.03564.152-.07055.228-.10406,2.67883,2.22754,5.24255,5.71026,7.92889,9.35937.92371,1.25464,1.8537,2.51508,2.79865,3.74329h.61761c-1.02173-1.31787-2.02527-2.67926-3.02179-4.033-2.6391-3.58472-5.1618-7.01129-7.81457-9.28064.06573-.02533.13214-.05.19854-.074,2.71308,1.94818,5.41858,5.42749,8.257,9.078,1.10761,1.42444,2.24982,2.88739,3.43018,4.30957h.46234v-.20917c-1.20716-1.44965-2.37488-2.94586-3.50629-4.40106C13.67175,11.77838,11.0354,8.38806,8.36005,6.3653c.05066-.01441.0993-.02881.14929-.04249,2.74316,1.62153,5.61438,5.11451,8.63214,8.78626.91,1.10718,1.84271,2.23944,2.79828,3.35547v-.7558c-.82324-.97113-1.631-1.9502-2.42029-2.91058-2.89178-3.51831-5.6507-6.87506-8.33978-8.63282l.063-.01232c2.76171,1.23187,5.82806,4.75976,9.05609,8.474.53888.62,1.08709,1.24866,1.641,1.87745v-.741q-.642-.73251-1.27191-1.45764C15.609,10.78613,12.887,7.6554,10.30273,6.14752c2.69452.92993,5.87189,4.3866,9.21558,8.02411.13934.15155.28113.30518.42145.45764v-.72253l-.06128-.06653c-3.07868-3.34924-5.83075-6.34235-8.339-7.68243,2.36352.6419,5.1994,3.41388,8.40033,6.69476V12.153c-3.6416-3.72052-6.8169-6.71685-9.50488-6.62243-.13422.00482-.26911.01233-.404.02331A4.75708,4.75708,0,0,0,9.468,5.44629a9.0155,9.0155,0,0,0-.93952-.06983l-.03357-.00891a9.52,9.52,0,0,0-1.54345-.28009,10.72168,10.72168,0,0,0-1.63385-.40332,11.78123,11.78123,0,0,0-1.64893-.493,12.82578,12.82578,0,0,0-1.664-.57037A13.87859,13.87859,0,0,0,.32428,2.98047C.21606,2.928.10815,2.8844,0,2.835V4.895c.07233.0672.14447.13238.2168.20068.01507.01368.02942.02741.04382.04108-.087.03-.17364.07434-.26062.10663v.53815c.21912-.08509.43787-.19007.6571-.25995q.33894.33389.669.68206A14.80317,14.80317,0,0,0,0,6.9425v.57789A14.26075,14.26075,0,0,1,1.66779,6.57q.339.36777.66766.74847A19.3423,19.3423,0,0,0,0,9.1087v.698A19.50392,19.50392,0,0,1,2.67444,7.71631q.35641.42426.70184.86078A27.54,27.54,0,0,0,0,11.88678v.794A28.43486,28.43486,0,0,1,3.69128,8.98041Zm4.20514-2.989-.03692.01233c-.048-.03289-.09589-.06573-.1438-.098C7.77594,5.93317,7.83618,5.96191,7.89642,5.99139ZM4.4281,7.782q-.31018-.36465-.62726-.71832c.08014-.04108.163-.08282.24311-.12256q.31942.32667.63342.669C4.59448,7.66632,4.511,7.72314,4.4281,7.782ZM5.09235,7.339q-.28665-.3143-.57868-.61627c.076-.03424.15412-.06714.23078-.09931q.2958.27531.58892.567Q5.21316,7.2633,5.09235,7.339ZM6.92682,5.9859c.12121.0719.241.14655.36224.22461-.04449.01782-.08972.03558-.13421.05408-.11023-.089-.22187-.176-.33283-.2602ZM6.18524,6.142q.23107.16534.46149.34442c-.06232.02875-.1239.05823-.18622.08838q-.22083-.19931-.44238-.389C6.07361,6.17078,6.12909,6.15643,6.18524,6.142Zm-.415.79364q-.25781-.25983-.51977-.50739c.06988-.02533.139-.04931.20886-.07263q.26807.22092.53412.45746C5.91882,6.85284,5.84491,6.89392,5.77026,6.93567Zm-.4787-1.37708c.11579.06781.23078.139.34516.21228l-.08905.02674q-.15-.12021-.30194-.2356C5.26147,5.56067,5.27655,5.55927,5.29156,5.55859Zm-.75048.0918q.22594.16022.44989.33209c-.05274.01917-.10614.039-.15815.0589q-.20955-.188-.42114-.36908C4.45483,5.66473,4.49725,5.65723,4.54108,5.65039Zm-.56354-.38147-.04315.00891Q3.808,5.17721,3.6817,5.08,3.82965,5.17242,3.97754,5.26892ZM3.80292,5.801q.26394.21568.52453.4458c-.06573.02807-.13147.05749-.1972.08691q-.25068-.24857-.50537-.48755C3.68378,5.83044,3.74469,5.81537,3.80292,5.801Zm-.14179.75732c-.07324.037-.14581.074-.21911.113q-.28145-.303-.56836-.59577c.06781-.024.137-.04724.20477-.06915Q3.37323,6.27554,3.66113,6.55835ZM2.8559,5.07654c.13348.09515.26635.19378.3999.29376.02533.01984.05133.03973.07733.0589-.04108.01233-.08215.024-.12323.03625q-.2178-.19409-.43823-.3814C2.79974,5.0813,2.82782,5.07861,2.8559,5.07654Zm-.7464.09381c.04382.03558.08764.0719.13147.10821.1438.11774.28619.239.4273.36152-.05615.01989-.113.0404-.16919.06164q-.26394-.25781-.532-.50671C2.01428,5.1861,2.06226,5.17786,2.1095,5.17035ZM.792,4.96832c-.07947-.07666-.15887-.152-.239-.228C.46533,4.65747.37769,4.576.29,4.49451l.1178-.01233q.26294.21771.52655.44574C.88715,4.94165.83923,4.95465.792,4.96832Zm.36841-.53271c.14655.10815.29309.21771.43964.33142l-.08631.01849c-.13354-.11847-.26709-.23419-.3999-.34857Zm.63342,1.551q-.29589-.3153-.59985-.62109c.06091-.01575.12256-.0315.18347-.04584q.31431.28244.62177.57861Q1.89649,5.94137,1.79382,5.98657Zm.9621,1.07031q-.30514-.35439-.61768-.69848c.0774-.03284.15406-.06433.23212-.09583q.31842.31943.63.65186C2.91888,6.961,2.8374,7.00824,2.75592,7.05688Zm.3396.39991c.08765-.05207.17462-.10273.263-.15271q.33993.37491.671.76556-.13449.09962-.26977.204Q3.43209,7.85977,3.09552,7.45679Z"/>
          </g>
        </g>
        <g>
          <path class="cls-2" d="M50.63731,6.52018a1.63975,1.63975,0,0,1-.34444.53,1.5722,1.5722,0,0,1-.53275.35745,1.7805,1.7805,0,0,1-.69161.1301,1.73389,1.73389,0,0,1-1.27367-.45947,1.793,1.793,0,0,1-.467-1.33667V2.5136h.667V5.69914a1.91522,1.91522,0,0,0,.06643.52317,1.18259,1.18259,0,0,0,.20406.41017.90359.90359,0,0,0,.3369.2698,1.06792,1.06792,0,0,0,.46633.09518,1.17176,1.17176,0,0,0,.47043-.09107A1.04206,1.04206,0,0,0,50.121,6.2853a1.34665,1.34665,0,0,0,.07737-.46016V2.5136h.56151V5.87444a1.7039,1.7039,0,0,1-.12257.64574m2.86986.95388v-1.979a1.24426,1.24426,0,0,0-.13284-.667.58938.58938,0,0,0-.51974-.19653.64162.64162,0,0,0-.20338.03492,1.51245,1.51245,0,0,0-.20337.08423,1.09686,1.09686,0,0,0-.176.10888,1.4949,1.4949,0,0,0-.11915.102V7.47406h-.61081V4.33645l.61081-.16092v.39991a1.35445,1.35445,0,0,1,.52659-.3191,1.77517,1.77517,0,0,1,.52659-.08765.94283.94283,0,0,1,.66628.22734.96284.96284,0,0,1,.24582.73407v2.344Zm1.54347,0V4.38576l.61081-.22461V7.47406Zm.63478-4.2394a.42483.42483,0,0,1-.29788.10546.41845.41845,0,0,1-.29855-.10888.38934.38934,0,0,1,0-.554.46284.46284,0,0,1,.59643,0,.39346.39346,0,0,1,0,.5574m2.16386,4.162-.58958.16845L56.17229,4.281h.6382l.8005,2.47L58.45256,4.281h.56905Zm4.0326-1.87079a2.34681,2.34681,0,0,1-.03492.24241l-2.05636.07738v.15407a1.24159,1.24159,0,0,0,.063.39991.96423.96423,0,0,0,.18968.33416.89839.89839,0,0,0,.31568.228,1.0905,1.0905,0,0,0,.44167.08354,2.38374,2.38374,0,0,0,.49852-.052,1.88087,1.88087,0,0,0,.46289-.165l-.15407.56836a1.72506,1.72506,0,0,1-.42455.126,2.87528,2.87528,0,0,1-.53.0493,1.478,1.478,0,0,1-.63547-.1301,1.33028,1.33028,0,0,1-.46632-.35745,1.53231,1.53231,0,0,1-.28418-.53,2.15067,2.15067,0,0,1-.0945-.65259,2.11079,2.11079,0,0,1,.10545-.67381,1.64454,1.64454,0,0,1,.30472-.55055,1.46469,1.46469,0,0,1,.48071-.37251,1.44245,1.44245,0,0,1,.63889-.13627,1.3121,1.3121,0,0,1,.86965.26979,1.04032,1.04032,0,0,1,.32321.84569c0,.06574-.00479.14654-.01369.24172m-.769-.81008a.59744.59744,0,0,0-.42456-.14722.7695.7695,0,0,0-.354.08012.87535.87535,0,0,0-.267.20748.9893.9893,0,0,0-.1712.28418,1.10326,1.10326,0,0,0-.07806.30541l1.41815-.063a.97846.97846,0,0,0,.02808-.14791,1.17969,1.17969,0,0,0,.00685-.11915.51944.51944,0,0,0-.15818-.39991m2.99859.26638-.3013-.21707a.25827.25827,0,0,0-.15064.05958,1.12733,1.12733,0,0,0-.16161.14722,2.244,2.244,0,0,0-.15133.18215c-.04657.06368-.08354.1164-.1123.15818V7.47406h-.61013V4.33645l.61013-.1753v.68066A1.70551,1.70551,0,0,1,63.663,4.305a.702.702,0,0,1,.40675-.13627.498.498,0,0,1,.2876.07326.90335.90335,0,0,1,.18969.17941Zm2.75688,2.06663a.83318.83318,0,0,1-.25611.29514,1.12817,1.12817,0,0,1-.36772.17187,1.63941,1.63941,0,0,1-.43208.05615,2.5121,2.5121,0,0,1-.52317-.063,2.84588,2.84588,0,0,1-.593-.20338l.2246-.46358a3.11364,3.11364,0,0,0,.42455.18625,1.33029,1.33029,0,0,0,.44579.08081.66816.66816,0,0,0,.40333-.11573.389.389,0,0,0,.15818-.33348.32183.32183,0,0,0-.0452-.17187.5701.5701,0,0,0-.113-.13011.66225.66225,0,0,0-.15065-.09518c-.05616-.02534-.11025-.05-.16093-.07328l-.415-.1616a1.32971,1.32971,0,0,1-.51152-.32938A.8406.8406,0,0,1,64.76,5.10134a.79806.79806,0,0,1,.09792-.40333.94147.94147,0,0,1,.25953-.291,1.15647,1.15647,0,0,1,.365-.17941,1.51492,1.51492,0,0,1,.42113-.05889,2.46829,2.46829,0,0,1,.54713.063,1.91675,1.91675,0,0,1,.47112.16161l-.19036.4766a2.69,2.69,0,0,0-.39649-.17188,1.29141,1.29141,0,0,0-.42455-.07327.95277.95277,0,0,0-.19653.02055.54463.54463,0,0,0-.1753.07052.43668.43668,0,0,0-.12942.126.33225.33225,0,0,0-.05273.18968.365.365,0,0,0,.10888.28761,1.00235,1.00235,0,0,0,.30541.176l.4629.18215a2.5449,2.5449,0,0,1,.28007.14038.93385.93385,0,0,1,.23487.18968.79707.79707,0,0,1,.15887.263,1.04976,1.04976,0,0,1,.05615.36156.87967.87967,0,0,1-.09518.417m.782.42524V4.38576l.61013-.22461V7.47406Zm.63478-4.2394a.42366.42366,0,0,1-.29787.10546.41568.41568,0,0,1-.29788-.10888.38774.38774,0,0,1,0-.554.4619.4619,0,0,1,.59575,0,.39344.39344,0,0,1,0,.5574m2.43777,1.53046h-.73612V6.51265a.69906.69906,0,0,0,.102.44167.40409.40409,0,0,0,.32527.11915.82352.82352,0,0,0,.28486-.0452,1.84363,1.84363,0,0,0,.21364-.09449l-.14037.53343c-.10751.02328-.20543.04588-.29446.06985a1.16139,1.16139,0,0,1-.29444.03492.77017.77017,0,0,1-.61424-.21707,1.15449,1.15449,0,0,1-.18626-.74434V4.76512h-.63889l.23214-.48413h.40675V3.62087l.67381-.29445-.06984.95457h.947ZM72.81762,7.572c-.05615.15-.12326.30541-.2.467a2.17091,2.17091,0,0,1-.28828.4492,1.42449,1.42449,0,0,1-.417.34033,1.26276,1.26276,0,0,1-.58273.14038l-.2876-.68066h.45605a.917.917,0,0,0,.87034-.70942L71.18924,4.281h.667l.82036,2.38573L73.46335,4.281h.58959Z"/>
          <path class="cls-2" d="M77.63332,4.94014a.71737.71737,0,0,0-.656-.33622.60519.60519,0,0,0-.31089.087.81015.81015,0,0,0-.25952.24584,1.327,1.327,0,0,0-.1801.38484,1.73849,1.73849,0,0,0-.06779.50193,1.9326,1.9326,0,0,0,.19653.97374.70138.70138,0,0,0,.65532.32937.60751.60751,0,0,0,.31157-.087.89807.89807,0,0,0,.26638-.24584,1.23761,1.23761,0,0,0,.18626-.3773,1.64894,1.64894,0,0,0,.0671-.48893,1.89372,1.89372,0,0,0-.20885-.98743m.70942,1.55921a1.61175,1.61175,0,0,1-.33828.58206,1.39086,1.39086,0,0,1-.51631.34991,1.80368,1.80368,0,0,1-.65944.11779,1.25461,1.25461,0,0,1-.52316-.10751,1.143,1.143,0,0,1-.40949-.30472,1.44246,1.44246,0,0,1-.26432-.47455,1.92818,1.92818,0,0,1-.09449-.62382,1.97611,1.97611,0,0,1,.43345-1.39282,1.54486,1.54486,0,0,1,1.18944-.46427,1.25271,1.25271,0,0,1,.5307.11093,1.221,1.221,0,0,1,.41223.30815,1.41038,1.41038,0,0,1,.26637.47454,1.903,1.903,0,0,1,.09518.617,2.46469,2.46469,0,0,1-.12188.80733"/>
          <path class="cls-2" d="M81.045,3.12126l-.56151-.22186h-.11436a.46043.46043,0,0,0-.22666.06231.68645.68645,0,0,0-.2068.18352.97919.97919,0,0,0-.15133.30541,1.39968,1.39968,0,0,0-.05752.41907v.478h.77036l-.15544.478h-.61492V7.45173h-.58822V4.82565h-.54028l.15476-.478h.38552v-.2561a2.28012,2.28012,0,0,1,.08765-.65121,1.47788,1.47788,0,0,1,.2609-.51358,1.16528,1.16528,0,0,1,.42867-.33211,1.39341,1.39341,0,0,1,.58753-.11778,1.6439,1.6439,0,0,1,.4403.05135,1.91744,1.91744,0,0,1,.34444.13559Z"/>
        </g>
        <path class="cls-2" d="M83.80013,4.13965l-.61492,1.76054h1.22916Zm1.16205,3.31222-.37183-1.04632h-1.575l-.365,1.04632h-.60807l1.50032-4.08121-.14859-.37457h.69641l1.575,4.45578Z"/>
        <g>
          <path class="cls-2" d="M88.2844,5.4255a1.0889,1.0889,0,0,0-.18215-.39853.82765.82765,0,0,0-.32389-.25679,1.16419,1.16419,0,0,0-.47729-.0897.9282.9282,0,0,0-.29718.052,2.37338,2.37338,0,0,0-.23077.08628V6.38486a.83332.83332,0,0,0,.16639.54782.57379.57379,0,0,0,.46907.20064.78259.78259,0,0,0,.38278-.09382.8956.8956,0,0,0,.29377-.2561,1.26659,1.26659,0,0,0,.189-.37731,1.51173,1.51173,0,0,0,.06779-.45742,2.18172,2.18172,0,0,0-.05752-.52317m.56425,1.07714a1.7068,1.7068,0,0,1-.32047.56836,1.447,1.447,0,0,1-.48687.3643,1.46549,1.46549,0,0,1-.61219.12805,1.27289,1.27289,0,0,1-.13559-.01027c-.05341-.00754-.11093-.01781-.17187-.0315a1.41218,1.41218,0,0,1-.18558-.05889.6056.6056,0,0,1-.163-.09381v1.462l-.58754.20132V4.35453l.58754-.17325v.39511a1.51181,1.51181,0,0,1,.39647-.27391,1.20676,1.20676,0,0,1,.53686-.11435,1.11518,1.11518,0,0,1,.54713.13147,1.17214,1.17214,0,0,1,.39238.354,1.66726,1.66726,0,0,1,.23692.50536,2.11517,2.11517,0,0,1,.08081.58274,2.25515,2.25515,0,0,1-.115.74091"/>
          <path class="cls-2" d="M91.83293,5.4255a1.09994,1.09994,0,0,0-.18215-.39853.82986.82986,0,0,0-.32458-.25679,1.16073,1.16073,0,0,0-.4766-.0897.93542.93542,0,0,0-.29787.052,2.39047,2.39047,0,0,0-.2294.08628V6.38486a.83669.83669,0,0,0,.165.54782.57561.57561,0,0,0,.47043.20064.78369.78369,0,0,0,.3821-.09382.88647.88647,0,0,0,.29307-.2561,1.26764,1.26764,0,0,0,.18969-.37731,1.53312,1.53312,0,0,0,.0671-.45742,2.21855,2.21855,0,0,0-.05683-.52317m.56425,1.07714A1.68447,1.68447,0,0,1,92.076,7.071a1.44443,1.44443,0,0,1-.48618.3643,1.46546,1.46546,0,0,1-.61219.12805,1.24874,1.24874,0,0,1-.13489-.01027c-.05478-.00754-.11163-.01781-.17256-.0315a1.37933,1.37933,0,0,1-.18558-.05889.58093.58093,0,0,1-.16229-.09381v1.462l-.5889.20132V4.35453l.5889-.17325v.39511a1.515,1.515,0,0,1,.39512-.27391,1.21179,1.21179,0,0,1,.53753-.11435,1.11337,1.11337,0,0,1,.54714.13147,1.16335,1.16335,0,0,1,.39168.354,1.667,1.667,0,0,1,.23693.50536,2.09,2.09,0,0,1,.08149.58274,2.25489,2.25489,0,0,1-.115.74091"/>
        </g>
        <polygon class="cls-2" points="93.282 2.74 93.282 7.452 93.871 7.452 93.871 2.518 93.282 2.74"/>
        <g>
          <path class="cls-2" d="M94.85782,7.45208V4.40349l.58822-.22186V7.45208Zm.61082-4.1853a.44293.44293,0,0,1-.57453-.00343.39277.39277,0,0,1,0-.54712.43751.43751,0,0,1,.57453,0,.39526.39526,0,0,1,0,.55055"/>
          <path class="cls-2" d="M98.085,4.72876a.56815.56815,0,0,0-.40949-.14517.7258.7258,0,0,0-.341.07943.82414.82414,0,0,0-.25679.20475.9768.9768,0,0,0-.16572.28006,1.17273,1.17273,0,0,0-.07464.302l1.36543-.06231a.93327.93327,0,0,0,.02739-.14586,1.16623,1.16623,0,0,0,.00685-.11778.523.523,0,0,0-.152-.39511m.74024.80049a2.31436,2.31436,0,0,1-.03424.239l-1.981.076V5.997a1.2367,1.2367,0,0,0,.06232.39511.93924.93924,0,0,0,.18146.32869.86392.86392,0,0,0,.30541.226,1.009,1.009,0,0,0,.42524.08286,2.21579,2.21579,0,0,0,.47933-.052,1.75244,1.75244,0,0,0,.44647-.163l-.14859.56151a1.67075,1.67075,0,0,1-.40881.12463,2.73311,2.73311,0,0,1-.51015.04862,1.39738,1.39738,0,0,1-.61287-.12874,1.2862,1.2862,0,0,1-.44852-.35266,1.542,1.542,0,0,1-.2739-.52384,2.1839,2.1839,0,0,1-.09176-.64437,2.13216,2.13216,0,0,1,.10134-.66491,1.63335,1.63335,0,0,1,.29445-.54371,1.423,1.423,0,0,1,.4629-.36771,1.35936,1.35936,0,0,1,.61424-.1349,1.24313,1.24313,0,0,1,.83884.26706,1.04008,1.04008,0,0,1,.31089.83472c0,.06437-.0048.14449-.013.239"/>
          <path class="cls-2" d="M101.58224,5.276a.60106.60106,0,0,0-.62176-.66491.79513.79513,0,0,0-.37526.09038.948.948,0,0,0-.29787.24515,1.22627,1.22627,0,0,0-.19585.37114,1.49253,1.49253,0,0,0-.07053.46428,1.50394,1.50394,0,0,0,.25336.984,1.00753,1.00753,0,0,0,.80119.291.68607.68607,0,0,0,.28074-.06163.94062.94062,0,0,0,.226-.139Zm.03356,2.32889v-.4992a1.58319,1.58319,0,0,1-.42936.33622,1.092,1.092,0,0,1-.49714.10683,1.14782,1.14782,0,0,1-.567-.1349,1.20009,1.20009,0,0,1-.40195-.35677A1.638,1.638,0,0,1,99.48,6.551a2.07833,2.07833,0,0,1-.08081-.57452,2.29437,2.29437,0,0,1,.11162-.73476,1.67216,1.67216,0,0,1,.31431-.56835,1.44013,1.44013,0,0,1,.47933-.367,1.41911,1.41911,0,0,1,.61492-.13216,1.44765,1.44765,0,0,1,.31089.03492,1.21675,1.21675,0,0,1,.352.15271V2.69164l.58822-.20132V7.39668Z"/>
          <path class="cls-2" d="M106.93227,6.794a1.174,1.174,0,0,1-.291.402,1.294,1.294,0,0,1-.44168.2561,1.666,1.666,0,0,1-.55535.09039,2.585,2.585,0,0,1-.56082-.05889,3.32952,3.32952,0,0,1-.49372-.14928l-.09449-.76215a2.31914,2.31914,0,0,0,.493.30815,1.4537,1.4537,0,0,0,.61629.1212.84656.84656,0,0,0,.28623-.04862.80676.80676,0,0,0,.24721-.1349.64044.64044,0,0,0,.17256-.20817.5685.5685,0,0,0,.06368-.27322.49062.49062,0,0,0-.06711-.2561.87584.87584,0,0,0-.163-.1979,1.209,1.209,0,0,0-.19174-.14517c-.06574-.03972-.1212-.07327-.165-.10134l-.39922-.24857a1.95626,1.95626,0,0,1-.6156-.54782,1.07572,1.07572,0,0,1-.189-.61013,1.30756,1.30756,0,0,1,.10477-.53,1.16358,1.16358,0,0,1,.29719-.40881,1.31834,1.31834,0,0,1,.45947-.25952,1.83851,1.83851,0,0,1,.591-.09039,1.3894,1.3894,0,0,1,.2746.02807,2.27386,2.27386,0,0,1,.267.06848,2.07067,2.07067,0,0,1,.23009.09039,1.37126,1.37126,0,0,1,.1616.09039V3.918a1.49221,1.49221,0,0,0-.39579-.30814,1.09482,1.09482,0,0,0-.53755-.12806,1.12506,1.12506,0,0,0-.30677.04109.8323.8323,0,0,0-.26022.12463.6.6,0,0,0-.18283.21159.62037.62037,0,0,0-.06711.29445.51907.51907,0,0,0,.0541.24309.74486.74486,0,0,0,.14449.19037,1.5297,1.5297,0,0,0,.20954.163c.07943.05067.16023.10339.24035.15886l.39853.2561c.08149.05136.16709.11094.25679.1801a1.68705,1.68705,0,0,1,.25063.23967,1.228,1.228,0,0,1,.189.30814.95.95,0,0,1,.07465.38142,1.26551,1.26551,0,0,1-.10477.51973"/>
          <path class="cls-2" d="M109.69941,5.11688l-.49988-.49919h-.12189a.63771.63771,0,0,0-.29993.08011.91871.91871,0,0,0-.27733.228,1.16732,1.16732,0,0,0-.20269.37457,1.5732,1.5732,0,0,0-.07874.51631,2.06757,2.06757,0,0,0,.05478.49235,1.0879,1.0879,0,0,0,.16913.38073.79482.79482,0,0,0,.29719.24994.98958.98958,0,0,0,.43893.08971,1.39116,1.39116,0,0,0,.4629-.07259,2.29128,2.29128,0,0,0,.376-.16982l-.115.51289a1.13521,1.13521,0,0,1-.42593.19037,2.06024,2.06024,0,0,1-.467.05888,1.47432,1.47432,0,0,1-.59712-.11435,1.20126,1.20126,0,0,1-.443-.32937,1.44658,1.44658,0,0,1-.27734-.51289,2.21425,2.21425,0,0,1-.09449-.67176,2.02084,2.02084,0,0,1,.1212-.72106,1.67751,1.67751,0,0,1,.32869-.54371,1.436,1.436,0,0,1,.47591-.34649,1.386,1.386,0,0,1,.57452-.1212,1.40794,1.40794,0,0,1,.60534.13832.90707.90707,0,0,1,.443.4855Z"/>
          <path class="cls-2" d="M110.74772,7.45208V4.40349l.58822-.22186V7.45208Zm.61151-4.1853a.40439.40439,0,0,1-.28762.10408.39677.39677,0,0,1-.28623-.10751.38934.38934,0,0,1,0-.54712.4366.4366,0,0,1,.57385,0,.39526.39526,0,0,1,0,.55055"/>
          <path class="cls-2" d="M113.97441,4.72876a.56479.56479,0,0,0-.40812-.14517.73068.73068,0,0,0-.34171.07943.83209.83209,0,0,0-.25678.20475.977.977,0,0,0-.16572.28006,1.1169,1.1169,0,0,0-.074.302l1.36542-.06231a.85184.85184,0,0,0,.026-.14586c.00479-.04657.00753-.0856.00753-.11778a.51839.51839,0,0,0-.1527-.39511m.74024.80049a2.006,2.006,0,0,1-.03357.239l-1.98034.076V5.997a1.27565,1.27565,0,0,0,.06094.39511.94087.94087,0,0,0,.18215.32869.86137.86137,0,0,0,.30472.226,1.01455,1.01455,0,0,0,.42593.08286,2.222,2.222,0,0,0,.48-.052,1.73339,1.73339,0,0,0,.44509-.163l-.1479.56151a1.66749,1.66749,0,0,1-.40949.12463,2.72216,2.72216,0,0,1-.51015.04862,1.38818,1.38818,0,0,1-.61081-.12874,1.28108,1.28108,0,0,1-.45058-.35266,1.5408,1.5408,0,0,1-.27323-.52384,2.18422,2.18422,0,0,1-.09176-.64437,2.15224,2.15224,0,0,1,.10135-.66491,1.65687,1.65687,0,0,1,.29377-.54371,1.4255,1.4255,0,0,1,.46358-.36771,1.3623,1.3623,0,0,1,.61493-.1349,1.2449,1.2449,0,0,1,.83815.26706,1.04234,1.04234,0,0,1,.31088.83472c0,.06437-.00479.14449-.01368.239"/>
          <path class="cls-2" d="M117.40558,7.45207V5.49775a1.23907,1.23907,0,0,0-.12943-.65806.558.558,0,0,0-.49988-.19448.61625.61625,0,0,0-.19584.03493,1.55173,1.55173,0,0,0-.19653.08354.98493.98493,0,0,0-.16845.10682,1.48557,1.48557,0,0,0-.115.10067v2.4809h-.58822V4.35419l.58822-.15887v.39443a1.30814,1.30814,0,0,1,.50741-.315,1.64352,1.64352,0,0,1,.50673-.08628.89586.89586,0,0,1,.6423.22529.96275.96275,0,0,1,.23694.7238V7.45207Z"/>
          <path class="cls-2" d="M120.86537,5.11688l-.4992-.49919h-.12257a.6423.6423,0,0,0-.30061.08011.91875.91875,0,0,0-.27734.228,1.19565,1.19565,0,0,0-.20338.37457,1.57467,1.57467,0,0,0-.07737.51631,2.10565,2.10565,0,0,0,.05409.49235,1.07554,1.07554,0,0,0,.16914.38073.79178.79178,0,0,0,.29788.24994.9875.9875,0,0,0,.43893.08971,1.40118,1.40118,0,0,0,.46359-.07259,2.32885,2.32885,0,0,0,.37457-.16982l-.11436.51289a1.14,1.14,0,0,1-.42593.19037,2.06016,2.06016,0,0,1-.467.05888,1.48337,1.48337,0,0,1-.5985-.11435,1.21586,1.21586,0,0,1-.44235-.32937,1.46794,1.46794,0,0,1-.27733-.51289,2.23561,2.23561,0,0,1-.0945-.67176,2.02064,2.02064,0,0,1,.12188-.72106,1.67753,1.67753,0,0,1,.3287-.54371,1.4289,1.4289,0,0,1,.47591-.34649,1.40431,1.40431,0,0,1,1.17849.01712.89681.89681,0,0,1,.443.4855Z"/>
          <path class="cls-2" d="M123.52542,4.72876a.56646.56646,0,0,0-.40881-.14517.73057.73057,0,0,0-.34169.07943.83992.83992,0,0,0-.25679.20475.99254.99254,0,0,0-.16572.28006,1.11653,1.11653,0,0,0-.074.302l1.36474-.06231a.86044.86044,0,0,0,.02739-.14586,1.1412,1.1412,0,0,0,.00617-.11778.52259.52259,0,0,0-.15134-.39511m.74024.80049a2.33253,2.33253,0,0,1-.03356.239l-1.981.076V5.997a1.27565,1.27565,0,0,0,.06094.39511.95329.95329,0,0,0,.18283.32869.86228.86228,0,0,0,.30336.226,1.02437,1.02437,0,0,0,.42661.08286,2.2174,2.2174,0,0,0,.48-.052,1.74764,1.74764,0,0,0,.44578-.163l-.14927.56151a1.64573,1.64573,0,0,1-.40813.12463,2.72936,2.72936,0,0,1-.51084.04862,1.39547,1.39547,0,0,1-.61149-.12874,1.27622,1.27622,0,0,1-.44921-.35266,1.54177,1.54177,0,0,1-.2739-.52384,2.18407,2.18407,0,0,1-.09109-.64437,2.13216,2.13216,0,0,1,.10136-.66491,1.61973,1.61973,0,0,1,.29376-.54371,1.4255,1.4255,0,0,1,.46358-.36771,1.35826,1.35826,0,0,1,.61493-.1349,1.24055,1.24055,0,0,1,.83747.26706,1.04261,1.04261,0,0,1,.31157.83472c0,.06437-.0048.14449-.01369.239"/>
          <path class="cls-2" d="M126.90474,7.03286a.82753.82753,0,0,1-.24651.291,1.09477,1.09477,0,0,1-.35541.16982,1.54515,1.54515,0,0,1-.41565.05547,2.38528,2.38528,0,0,1-.504-.06232,2.66167,2.66167,0,0,1-.57042-.20132l.21571-.45742a2.8484,2.8484,0,0,0,.41017.1842,1.25763,1.25763,0,0,0,.42866.07944.63735.63735,0,0,0,.389-.11368.39009.39009,0,0,0,.15064-.33006.31151.31151,0,0,0-.04382-.16913.50771.50771,0,0,0-.10682-.12874.63876.63876,0,0,0-.14586-.09313c-.0541-.02534-.10614-.0493-.15544-.07258l-.39854-.15955a1.28126,1.28126,0,0,1-.49371-.32595A.844.844,0,0,1,124.8744,5.11a.8125.8125,0,0,1,.09382-.39853.93276.93276,0,0,1,.24993-.2876,1.10836,1.10836,0,0,1,.35129-.17667,1.41355,1.41355,0,0,1,.40607-.05889,2.32006,2.32006,0,0,1,.52658.06231,1.912,1.912,0,0,1,.45332.15887l-.18146.4718a2.67335,2.67335,0,0,0-.38278-.16982,1.22181,1.22181,0,0,0-.4095-.07258.8496.8496,0,0,0-.189.02054.503.503,0,0,0-.16914.06916.44092.44092,0,0,0-.12463.12463.32751.32751,0,0,0-.05068.18694.36715.36715,0,0,0,.10477.28418.95224.95224,0,0,0,.29309.17393l.44715.18009a2.50833,2.50833,0,0,1,.27049.13833.94251.94251,0,0,1,.226.18694.81707.81707,0,0,1,.15271.25953,1.0837,1.0837,0,0,1,.05273.35744.88555.88555,0,0,1-.09039.41223"/>
        </g>
        <polygon class="cls-2" points="52.085 29.909 52.085 26.478 48.433 26.478 48.433 29.909 47.324 29.909 47.324 22.417 48.433 22.417 48.433 25.568 52.085 25.568 52.085 22.417 53.194 22.417 53.194 29.909 52.085 29.909"/>
        <g>
          <path class="cls-2" d="M61.79991,24.98438a2.793,2.793,0,0,0-.48481-.9395,2.2045,2.2045,0,0,0-.78132-.61218,2.65308,2.65308,0,0,0-2.12415,0,2.21282,2.21282,0,0,0-.782.61218,2.80443,2.80443,0,0,0-.48414.9395,4.03817,4.03817,0,0,0-.16913,1.19013A4.13558,4.13558,0,0,0,57.138,27.3708a2.6511,2.6511,0,0,0,.48414.93334,2.26325,2.26325,0,0,0,.78748.61286,2.653,2.653,0,0,0,2.12415,0,2.19857,2.19857,0,0,0,.78132-.61286,2.79423,2.79423,0,0,0,.48481-.93334,4.29333,4.29333,0,0,0,0-2.38642m1.08536,2.75414a3.71457,3.71457,0,0,1-.76489,1.23121,3.418,3.418,0,0,1-1.16684.80529,3.9877,3.9877,0,0,1-2.96367,0,3.452,3.452,0,0,1-1.16685-.79981,3.64412,3.64412,0,0,1-.7642-1.225,4.62261,4.62261,0,0,1,0-3.139A3.71318,3.71318,0,0,1,56.823,23.38a3.4181,3.4181,0,0,1,1.16685-.80528,3.9877,3.9877,0,0,1,2.96367,0,3.41816,3.41816,0,0,1,1.16684.80528,3.71462,3.71462,0,0,1,.76489,1.23122,4.60019,4.60019,0,0,1,0,3.12733"/>
          <path class="cls-2" d="M70.77352,29.65224a4.6449,4.6449,0,0,1-.53069.19242,5.41893,5.41893,0,0,1-.63068.14586,4.02988,4.02988,0,0,1-.68819.0582,4.33953,4.33953,0,0,1-1.616-.28555A3.435,3.435,0,0,1,65.318,27.75a4.23913,4.23913,0,0,1-.26843-1.52841,4.341,4.341,0,0,1,.28007-1.57564,3.64666,3.64666,0,0,1,.79364-1.24834,3.60024,3.60024,0,0,1,1.22573-.81693,4.112,4.112,0,0,1,1.575-.29171,4.02988,4.02988,0,0,1,.68819.05821,5.41689,5.41689,0,0,1,.63068.14586,4.64684,4.64684,0,0,1,.53069.19241,4.2647,4.2647,0,0,1,.40264.19859v1.12028a2.882,2.882,0,0,0-.41428-.26295,5.00813,5.00813,0,0,0-.55466-.25063,4.22082,4.22082,0,0,0-.64094-.18694,3.3498,3.3498,0,0,0-.67724-.06985,2.767,2.767,0,0,0-1.0566.19859,2.39942,2.39942,0,0,0-.83952.57178,2.61257,2.61257,0,0,0-.55466.91,3.488,3.488,0,0,0-.19859,1.21341,3.30428,3.30428,0,0,0,.19859,1.1552,2.86347,2.86347,0,0,0,.55466.934,2.6111,2.6111,0,0,0,.83952.62451,2.46218,2.46218,0,0,0,1.0566.22734,3.69952,3.69952,0,0,0,2.28712-.77036V29.442a2.847,2.847,0,0,1-.40264.21022"/>
        </g>
        <polygon class="cls-2" points="78.819 29.909 78.819 26.478 75.167 26.478 75.167 29.909 74.058 29.909 74.058 22.417 75.167 22.417 75.167 25.568 78.819 25.568 78.819 22.417 79.928 22.417 79.928 29.909 78.819 29.909"/>
        <g>
          <path class="cls-2" d="M87.017,28.80025a1.98186,1.98186,0,0,1-.50194.67724,2.26009,2.26009,0,0,1-.7642.4314,2.95192,2.95192,0,0,1-.95662.152,4.56865,4.56865,0,0,1-.96895-.09929,5.90767,5.90767,0,0,1-.85185-.25131l-.163-1.28325a3.94105,3.94105,0,0,0,.85116.51905,2.57357,2.57357,0,0,0,1.06207.20406,1.51173,1.51173,0,0,0,.49579-.08149,1.43547,1.43547,0,0,0,.42592-.22734,1.12158,1.12158,0,0,0,.29787-.34991.95238.95238,0,0,0,.11093-.46154.79548.79548,0,0,0-.1171-.4314,1.535,1.535,0,0,0-.27937-.3328,2.12573,2.12573,0,0,0-.33281-.24515c-.113-.06574-.20885-.12257-.28623-.16913l-.68819-.41977A3.37088,3.37088,0,0,1,83.28847,25.51a1.78846,1.78846,0,0,1-.32664-1.02715,2.15638,2.15638,0,0,1,.18078-.89294,1.95368,1.95368,0,0,1,.51358-.68819,2.29638,2.29638,0,0,1,.793-.43757,3.24874,3.24874,0,0,1,1.02167-.152,2.48778,2.48778,0,0,1,.47249.04657,4.11857,4.11857,0,0,1,.46085.11709,3.34036,3.34036,0,0,1,.39717.15133,2.2374,2.2374,0,0,1,.28006.152v1.17849a2.579,2.579,0,0,0-.68272-.51906,2.07558,2.07558,0,0,0-1.45923-.14585,1.455,1.455,0,0,0-.4492.20954,1.01214,1.01214,0,0,0-.43141.85185.85542.85542,0,0,0,.09313.4088,1.20158,1.20158,0,0,0,.25131.32048,2.35,2.35,0,0,0,.36156.27459c.13626.08559.2739.17461.41428.26843l.68819.4314c.14037.0856.28761.18694.44373.304a2.80564,2.80564,0,0,1,.43141.402,2.05792,2.05792,0,0,1,.32731.51975,1.58571,1.58571,0,0,1,.12805.64162,2.08462,2.08462,0,0,1-.18077.87513"/>
          <path class="cls-2" d="M95.09182,29.65224a4.64528,4.64528,0,0,1-.53071.19242,5.43921,5.43921,0,0,1-.63.14586,4.02415,4.02415,0,0,1-.6882.0582,4.34065,4.34065,0,0,1-1.61673-.28555,3.47952,3.47952,0,0,1-1.21957-.7998A3.518,3.518,0,0,1,89.63626,27.75a4.23935,4.23935,0,0,1-.26842-1.52841,4.32705,4.32705,0,0,1,.28075-1.57564,3.64494,3.64494,0,0,1,.793-1.24834,3.60683,3.60683,0,0,1,1.22573-.81693,4.11544,4.11544,0,0,1,1.57564-.29171,4.02415,4.02415,0,0,1,.6882.05821,5.43714,5.43714,0,0,1,.63.14586,4.64722,4.64722,0,0,1,.53071.19241,4.26713,4.26713,0,0,1,.40264.19859v1.12028a2.88231,2.88231,0,0,0-.4143-.26295,5.00646,5.00646,0,0,0-.55466-.25063,4.16107,4.16107,0,0,0-.64162-.18694,3.333,3.333,0,0,0-.67655-.06985,2.76091,2.76091,0,0,0-1.05591.19859,2.40211,2.40211,0,0,0-.84021.57178,2.60113,2.60113,0,0,0-.554.91,3.488,3.488,0,0,0-.19858,1.21341,3.30427,3.30427,0,0,0,.19858,1.1552,2.85016,2.85016,0,0,0,.554.934,2.61385,2.61385,0,0,0,.84021.62451,2.45685,2.45685,0,0,0,1.05591.22734,3.69958,3.69958,0,0,0,2.28713-.77036V29.442a2.84813,2.84813,0,0,1-.40264.21022"/>
        </g>
        <polygon class="cls-2" points="103.137 29.909 103.137 26.478 99.485 26.478 99.485 29.909 98.376 29.909 98.376 22.417 99.485 22.417 99.485 25.568 103.137 25.568 103.137 22.417 104.246 22.417 104.246 29.909 103.137 29.909"/>
        <path class="cls-2" d="M112.9574,28.38021a2.73632,2.73632,0,0,1-.57179.8813,2.62162,2.62162,0,0,1-.88677.59506,2.96967,2.96967,0,0,1-1.14972.21571,2.8862,2.8862,0,0,1-2.118-.7642,2.98266,2.98266,0,0,1-.77584-2.22344v-4.6441h1.10864v4.57425a3.18406,3.18406,0,0,0,.11025.86965,1.97056,1.97056,0,0,0,.33895.68272,1.54569,1.54569,0,0,0,.56015.4492,1.79746,1.79746,0,0,0,.77584.1575,1.9428,1.9428,0,0,0,.782-.152,1.75349,1.75349,0,0,0,.59574-.41428,1.7868,1.7868,0,0,0,.37252-.61835,2.23236,2.23236,0,0,0,.12874-.7642V22.44054h.93333v4.866a2.81664,2.81664,0,0,1-.204,1.07371"/>
        <polygon class="cls-2" points="119.976 29.909 116.336 29.909 116.336 22.417 117.444 22.417 117.444 29.01 120.443 29.01 119.976 29.909"/>
        <polygon class="cls-2" points="126.476 29.909 122.672 29.909 122.672 22.417 126.733 22.417 126.383 23.281 123.78 23.281 123.78 25.684 126.231 25.684 125.893 26.536 123.78 26.536 123.78 29.01 126.943 29.01 126.476 29.909"/>
      </g>
    </g>
  </g>
</svg>
